G75*
G70*
%OFA0B0*%
%FSLAX24Y24*%
%IPPOS*%
%LPD*%
%AMOC8*
5,1,8,0,0,1.08239X$1,22.5*
%
%ADD10C,0.0160*%
%ADD11C,0.0040*%
%ADD12C,0.0100*%
%ADD13C,0.0060*%
%ADD14R,0.0256X0.0551*%
%ADD15C,0.0030*%
%ADD16R,0.0551X0.0256*%
D10*
X006933Y022300D02*
X010933Y022300D01*
X010933Y027050D01*
X006933Y027050D01*
D11*
X037082Y025270D02*
X037429Y025270D01*
X037082Y025270D01*
X037255Y025097D02*
X037255Y025444D01*
X037255Y025097D01*
X039082Y025270D02*
X039429Y025270D01*
X039255Y025097D02*
X039255Y025444D01*
X041082Y025270D02*
X041429Y025270D01*
X041255Y025097D02*
X041255Y025444D01*
D12*
X045933Y009800D02*
X006933Y009800D01*
X006933Y022257D01*
X005831Y022257D01*
X005831Y027060D01*
X006933Y027060D01*
X006933Y030800D01*
X045433Y030800D01*
X045933Y030300D01*
X045933Y025800D01*
X046933Y024800D01*
X046933Y011300D01*
X045933Y010300D01*
X045933Y009800D01*
X006894Y011430D02*
X005878Y011430D01*
X005878Y014973D01*
X006894Y014973D01*
X006933Y022257D02*
X006933Y027060D01*
D13*
X021772Y024300D02*
X022095Y024300D01*
X022095Y023800D02*
X021772Y023800D01*
X027647Y020175D02*
X027970Y020175D01*
X027970Y019675D02*
X027647Y019675D01*
X035308Y013211D02*
X035308Y012889D01*
X035808Y012889D02*
X035808Y013211D01*
X029183Y009836D02*
X029183Y009514D01*
X028683Y009514D02*
X028683Y009836D01*
X019058Y010764D02*
X019058Y011086D01*
X018558Y011086D02*
X018558Y010764D01*
D14*
X027520Y019926D03*
X028100Y019926D03*
X022225Y024051D03*
X021645Y024051D03*
D15*
X022061Y023630D02*
X022157Y023582D01*
X022254Y023485D01*
X022109Y023485D01*
X022061Y023437D01*
X022061Y023388D01*
X022109Y023340D01*
X022206Y023340D01*
X022254Y023388D01*
X022254Y023485D01*
X022355Y023340D02*
X022549Y023340D01*
X022452Y023340D02*
X022452Y023630D01*
X022549Y023533D01*
X022650Y023485D02*
X022698Y023437D01*
X022843Y023437D01*
X022747Y023437D02*
X022650Y023340D01*
X022650Y023485D02*
X022650Y023582D01*
X022698Y023630D01*
X022843Y023630D01*
X022843Y023340D01*
X026469Y019635D02*
X026469Y019587D01*
X026663Y019393D01*
X026663Y019345D01*
X026764Y019345D02*
X026958Y019345D01*
X026861Y019345D02*
X026861Y019635D01*
X026958Y019538D01*
X027059Y019490D02*
X027107Y019442D01*
X027252Y019442D01*
X027156Y019442D02*
X027059Y019345D01*
X027059Y019490D02*
X027059Y019587D01*
X027107Y019635D01*
X027252Y019635D01*
X027252Y019345D01*
X026663Y019635D02*
X026469Y019635D01*
X035848Y014749D02*
X035848Y014653D01*
X035897Y014604D01*
X036090Y014798D01*
X035897Y014798D01*
X035848Y014749D01*
X035897Y014604D02*
X036090Y014604D01*
X036139Y014653D01*
X036139Y014749D01*
X036090Y014798D01*
X036090Y014503D02*
X036139Y014455D01*
X036139Y014358D01*
X036090Y014310D01*
X036090Y014208D02*
X035993Y014208D01*
X035945Y014160D01*
X035945Y014015D01*
X035848Y014015D02*
X036139Y014015D01*
X036139Y014160D01*
X036090Y014208D01*
X035945Y014112D02*
X035848Y014208D01*
X035848Y014310D02*
X036042Y014503D01*
X036090Y014503D01*
X035848Y014503D02*
X035848Y014310D01*
X028514Y010124D02*
X028514Y010028D01*
X028465Y009979D01*
X028417Y009979D01*
X028368Y010028D01*
X028368Y010173D01*
X028272Y010173D02*
X028465Y010173D01*
X028514Y010124D01*
X028272Y010173D02*
X028223Y010124D01*
X028223Y010028D01*
X028272Y009979D01*
X028223Y009878D02*
X028223Y009685D01*
X028223Y009781D02*
X028514Y009781D01*
X028417Y009685D01*
X028465Y009583D02*
X028368Y009583D01*
X028320Y009535D01*
X028320Y009390D01*
X028223Y009390D02*
X028514Y009390D01*
X028514Y009535D01*
X028465Y009583D01*
X028320Y009487D02*
X028223Y009583D01*
X018514Y009656D02*
X018223Y009656D01*
X018223Y009560D02*
X018223Y009753D01*
X018272Y009854D02*
X018320Y009854D01*
X018368Y009903D01*
X018368Y009999D01*
X018320Y010048D01*
X018272Y010048D01*
X018223Y009999D01*
X018223Y009903D01*
X018272Y009854D01*
X018368Y009903D02*
X018417Y009854D01*
X018465Y009854D01*
X018514Y009903D01*
X018514Y009999D01*
X018465Y010048D01*
X018417Y010048D01*
X018368Y009999D01*
X018514Y009656D02*
X018417Y009560D01*
X018465Y009458D02*
X018368Y009458D01*
X018320Y009410D01*
X018320Y009265D01*
X018223Y009265D02*
X018514Y009265D01*
X018514Y009410D01*
X018465Y009458D01*
X018320Y009362D02*
X018223Y009458D01*
D16*
X018809Y010633D03*
X018809Y011213D03*
X028934Y009963D03*
X028934Y009383D03*
X035558Y012762D03*
X035558Y013342D03*
M02*
