G75*
G70*
%OFA0B0*%
%FSLAX24Y24*%
%IPPOS*%
%LPD*%
%AMOC8*
5,1,8,0,0,1.08239X$1,22.5*
%
%ADD10C,0.0000*%
D10*
X010831Y006738D02*
X051326Y006738D01*
X051326Y031109D01*
X010831Y031109D01*
X010831Y006738D01*
X015826Y010800D02*
X015828Y010850D01*
X015834Y010900D01*
X015844Y010949D01*
X015858Y010997D01*
X015875Y011044D01*
X015896Y011089D01*
X015921Y011133D01*
X015949Y011174D01*
X015981Y011213D01*
X016015Y011250D01*
X016052Y011284D01*
X016092Y011314D01*
X016134Y011341D01*
X016178Y011365D01*
X016224Y011386D01*
X016271Y011402D01*
X016319Y011415D01*
X016369Y011424D01*
X016418Y011429D01*
X016469Y011430D01*
X016519Y011427D01*
X016568Y011420D01*
X016617Y011409D01*
X016665Y011394D01*
X016711Y011376D01*
X016756Y011354D01*
X016799Y011328D01*
X016840Y011299D01*
X016879Y011267D01*
X016915Y011232D01*
X016947Y011194D01*
X016977Y011154D01*
X017004Y011111D01*
X017027Y011067D01*
X017046Y011021D01*
X017062Y010973D01*
X017074Y010924D01*
X017082Y010875D01*
X017086Y010825D01*
X017086Y010775D01*
X017082Y010725D01*
X017074Y010676D01*
X017062Y010627D01*
X017046Y010579D01*
X017027Y010533D01*
X017004Y010489D01*
X016977Y010446D01*
X016947Y010406D01*
X016915Y010368D01*
X016879Y010333D01*
X016840Y010301D01*
X016799Y010272D01*
X016756Y010246D01*
X016711Y010224D01*
X016665Y010206D01*
X016617Y010191D01*
X016568Y010180D01*
X016519Y010173D01*
X016469Y010170D01*
X016418Y010171D01*
X016369Y010176D01*
X016319Y010185D01*
X016271Y010198D01*
X016224Y010214D01*
X016178Y010235D01*
X016134Y010259D01*
X016092Y010286D01*
X016052Y010316D01*
X016015Y010350D01*
X015981Y010387D01*
X015949Y010426D01*
X015921Y010467D01*
X015896Y010511D01*
X015875Y010556D01*
X015858Y010603D01*
X015844Y010651D01*
X015834Y010700D01*
X015828Y010750D01*
X015826Y010800D01*
X016326Y029800D02*
X016328Y029850D01*
X016334Y029900D01*
X016344Y029949D01*
X016358Y029997D01*
X016375Y030044D01*
X016396Y030089D01*
X016421Y030133D01*
X016449Y030174D01*
X016481Y030213D01*
X016515Y030250D01*
X016552Y030284D01*
X016592Y030314D01*
X016634Y030341D01*
X016678Y030365D01*
X016724Y030386D01*
X016771Y030402D01*
X016819Y030415D01*
X016869Y030424D01*
X016918Y030429D01*
X016969Y030430D01*
X017019Y030427D01*
X017068Y030420D01*
X017117Y030409D01*
X017165Y030394D01*
X017211Y030376D01*
X017256Y030354D01*
X017299Y030328D01*
X017340Y030299D01*
X017379Y030267D01*
X017415Y030232D01*
X017447Y030194D01*
X017477Y030154D01*
X017504Y030111D01*
X017527Y030067D01*
X017546Y030021D01*
X017562Y029973D01*
X017574Y029924D01*
X017582Y029875D01*
X017586Y029825D01*
X017586Y029775D01*
X017582Y029725D01*
X017574Y029676D01*
X017562Y029627D01*
X017546Y029579D01*
X017527Y029533D01*
X017504Y029489D01*
X017477Y029446D01*
X017447Y029406D01*
X017415Y029368D01*
X017379Y029333D01*
X017340Y029301D01*
X017299Y029272D01*
X017256Y029246D01*
X017211Y029224D01*
X017165Y029206D01*
X017117Y029191D01*
X017068Y029180D01*
X017019Y029173D01*
X016969Y029170D01*
X016918Y029171D01*
X016869Y029176D01*
X016819Y029185D01*
X016771Y029198D01*
X016724Y029214D01*
X016678Y029235D01*
X016634Y029259D01*
X016592Y029286D01*
X016552Y029316D01*
X016515Y029350D01*
X016481Y029387D01*
X016449Y029426D01*
X016421Y029467D01*
X016396Y029511D01*
X016375Y029556D01*
X016358Y029603D01*
X016344Y029651D01*
X016334Y029700D01*
X016328Y029750D01*
X016326Y029800D01*
X048326Y010800D02*
X048328Y010850D01*
X048334Y010900D01*
X048344Y010949D01*
X048358Y010997D01*
X048375Y011044D01*
X048396Y011089D01*
X048421Y011133D01*
X048449Y011174D01*
X048481Y011213D01*
X048515Y011250D01*
X048552Y011284D01*
X048592Y011314D01*
X048634Y011341D01*
X048678Y011365D01*
X048724Y011386D01*
X048771Y011402D01*
X048819Y011415D01*
X048869Y011424D01*
X048918Y011429D01*
X048969Y011430D01*
X049019Y011427D01*
X049068Y011420D01*
X049117Y011409D01*
X049165Y011394D01*
X049211Y011376D01*
X049256Y011354D01*
X049299Y011328D01*
X049340Y011299D01*
X049379Y011267D01*
X049415Y011232D01*
X049447Y011194D01*
X049477Y011154D01*
X049504Y011111D01*
X049527Y011067D01*
X049546Y011021D01*
X049562Y010973D01*
X049574Y010924D01*
X049582Y010875D01*
X049586Y010825D01*
X049586Y010775D01*
X049582Y010725D01*
X049574Y010676D01*
X049562Y010627D01*
X049546Y010579D01*
X049527Y010533D01*
X049504Y010489D01*
X049477Y010446D01*
X049447Y010406D01*
X049415Y010368D01*
X049379Y010333D01*
X049340Y010301D01*
X049299Y010272D01*
X049256Y010246D01*
X049211Y010224D01*
X049165Y010206D01*
X049117Y010191D01*
X049068Y010180D01*
X049019Y010173D01*
X048969Y010170D01*
X048918Y010171D01*
X048869Y010176D01*
X048819Y010185D01*
X048771Y010198D01*
X048724Y010214D01*
X048678Y010235D01*
X048634Y010259D01*
X048592Y010286D01*
X048552Y010316D01*
X048515Y010350D01*
X048481Y010387D01*
X048449Y010426D01*
X048421Y010467D01*
X048396Y010511D01*
X048375Y010556D01*
X048358Y010603D01*
X048344Y010651D01*
X048334Y010700D01*
X048328Y010750D01*
X048326Y010800D01*
M02*
