G75*
G70*
%OFA0B0*%
%FSLAX24Y24*%
%IPPOS*%
%LPD*%
%AMOC8*
5,1,8,0,0,1.08239X$1,22.5*
%
%ADD10C,0.0720*%
%ADD11C,0.0720*%
%ADD12C,0.0760*%
%ADD13C,0.0714*%
%ADD14C,0.1340*%
%ADD15C,0.0792*%
%ADD16OC8,0.0720*%
%ADD17OC8,0.0840*%
%ADD18C,0.0986*%
%ADD19C,0.0905*%
%ADD20C,0.0674*%
%ADD21OC8,0.0674*%
%ADD22R,0.0820X0.0820*%
%ADD23C,0.0820*%
%ADD24C,0.0965*%
D10*
X023621Y007550D03*
X024621Y007550D03*
X025621Y007550D03*
X026621Y007550D03*
X026621Y008550D03*
X025621Y008550D03*
X024621Y008550D03*
X023621Y008550D03*
X023621Y009550D03*
X024621Y009550D03*
X025621Y009550D03*
X026621Y009550D03*
X029683Y008863D03*
X030683Y008863D03*
X031683Y008863D03*
X032683Y008863D03*
X032683Y007862D03*
X031683Y007862D03*
X030683Y007862D03*
X029683Y007862D03*
X037433Y017800D03*
X038433Y017800D03*
X039433Y017800D03*
X040433Y017800D03*
X040433Y018800D03*
X039433Y018800D03*
X038433Y018800D03*
X037433Y018800D03*
X033433Y018800D03*
X032433Y018800D03*
X031433Y018800D03*
X030433Y018800D03*
X026433Y018800D03*
X025433Y018800D03*
X024433Y018800D03*
X023433Y018800D03*
X023183Y027800D03*
X022183Y027800D03*
X024183Y027800D03*
X025183Y027800D03*
X030183Y027800D03*
X031183Y027800D03*
X032183Y027800D03*
X033183Y027800D03*
X036183Y027987D03*
X037183Y027987D03*
X038183Y027987D03*
X039183Y027987D03*
X040183Y027987D03*
X041183Y027987D03*
X042183Y027988D03*
X042183Y028988D03*
X042183Y026988D03*
X041183Y026987D03*
X040183Y026987D03*
X039183Y026987D03*
X038183Y026987D03*
X037183Y026987D03*
X036183Y026987D03*
X036183Y025987D03*
X037183Y025987D03*
X038183Y025987D03*
X039183Y025987D03*
X040183Y025987D03*
X041183Y025987D03*
X042183Y025988D03*
D11*
X017183Y026980D02*
X017183Y027620D01*
X016183Y027620D02*
X016183Y026980D01*
X015183Y026980D02*
X015183Y027620D01*
X015183Y024870D02*
X015183Y024230D01*
X016183Y024230D02*
X016183Y024870D01*
X017183Y024870D02*
X017183Y024230D01*
X015503Y021425D02*
X014863Y021425D01*
X014863Y020425D02*
X015503Y020425D01*
X015503Y019425D02*
X014863Y019425D01*
D12*
X016933Y014300D03*
X016933Y010300D03*
X024843Y012851D03*
X028843Y012851D03*
D13*
X028933Y010800D03*
X027933Y010800D03*
X026933Y010800D03*
X024933Y010800D03*
X023933Y010800D03*
X022933Y010800D03*
X021933Y010800D03*
X020933Y010800D03*
X019933Y010800D03*
X029933Y010800D03*
X030933Y010800D03*
X031933Y010800D03*
X032933Y010800D03*
X033933Y010800D03*
X035933Y010800D03*
X036933Y010800D03*
X037933Y010800D03*
X038933Y010800D03*
X039933Y010800D03*
X040933Y010800D03*
X041933Y010800D03*
X042933Y010800D03*
X043933Y012800D03*
X044933Y012800D03*
X044933Y013800D03*
X043933Y013800D03*
X043933Y014800D03*
X044933Y014800D03*
X044933Y015800D03*
X043933Y015800D03*
X043933Y016800D03*
X043933Y017800D03*
X044933Y017800D03*
X044933Y016800D03*
X044933Y018800D03*
X043933Y018800D03*
X043933Y019800D03*
X043933Y020800D03*
X044933Y020800D03*
X044933Y019800D03*
X044933Y021800D03*
X043933Y021800D03*
X043933Y022800D03*
X043933Y023800D03*
X044933Y023800D03*
X044933Y022800D03*
X044933Y024800D03*
X043933Y024800D03*
X043933Y025800D03*
X043933Y026800D03*
X044933Y026800D03*
X044933Y025800D03*
X044933Y027800D03*
X043933Y027800D03*
X043933Y028800D03*
X044933Y028800D03*
X044933Y029800D03*
X043933Y029800D03*
X040933Y029800D03*
X039933Y029800D03*
X038933Y029800D03*
X037933Y029800D03*
X036933Y029800D03*
X035933Y029800D03*
X034933Y029800D03*
X033933Y029800D03*
X031933Y029800D03*
X030933Y029800D03*
X029933Y029800D03*
X028933Y029800D03*
X027933Y029800D03*
X026933Y029800D03*
X025933Y029800D03*
X024933Y029800D03*
X023333Y029800D03*
X022333Y029800D03*
X021333Y029800D03*
X020333Y029800D03*
X019333Y029800D03*
X018333Y029800D03*
X017333Y029800D03*
X016333Y029800D03*
D14*
X012933Y029800D03*
X012433Y010800D03*
X044933Y010800D03*
D15*
X012540Y017300D02*
X011827Y017300D01*
X011827Y019300D02*
X012540Y019300D01*
X012540Y021300D02*
X011827Y021300D01*
X011827Y023300D02*
X012540Y023300D01*
X012540Y025300D02*
X011827Y025300D01*
X011827Y027300D02*
X012540Y027300D01*
D16*
X023433Y024300D03*
X024433Y024300D03*
X025433Y024300D03*
X025433Y023300D03*
X024433Y023300D03*
X023433Y023300D03*
X031433Y023300D03*
X032433Y023300D03*
X033433Y023300D03*
X033433Y024300D03*
X032433Y024300D03*
X031433Y024300D03*
X031433Y015300D03*
X032433Y015300D03*
X033433Y015300D03*
X033433Y014300D03*
X032433Y014300D03*
X031433Y014300D03*
X025433Y014300D03*
X024433Y014300D03*
X023433Y014300D03*
X023433Y015300D03*
X024433Y015300D03*
X025433Y015300D03*
X021823Y008185D03*
X020043Y008185D03*
X039433Y014300D03*
X040433Y014300D03*
X041433Y014300D03*
X041433Y015300D03*
X040433Y015300D03*
X039433Y015300D03*
D17*
X018433Y009675D03*
X018433Y008665D03*
X018433Y007665D03*
D18*
X015746Y009847D02*
X015746Y010753D01*
X014371Y010940D02*
X014371Y010035D01*
X014371Y014035D02*
X014371Y014940D01*
X015746Y014753D02*
X015746Y013847D01*
D19*
X010221Y008988D02*
X009396Y008988D01*
X009396Y010988D02*
X010221Y010988D01*
X010221Y012988D02*
X009396Y012988D01*
X009396Y014988D02*
X010221Y014988D01*
D20*
X019433Y016800D03*
X020433Y016800D03*
X021433Y016800D03*
X022433Y016800D03*
X023433Y016800D03*
X024433Y016800D03*
X025433Y016800D03*
X026433Y016800D03*
X027433Y016800D03*
X028433Y016800D03*
X029433Y016800D03*
X030433Y016800D03*
X031433Y016800D03*
X032433Y016800D03*
X033433Y016800D03*
X034433Y016800D03*
X035433Y016800D03*
X036433Y016800D03*
X037433Y016800D03*
X038433Y016800D03*
X039433Y016800D03*
X040433Y016800D03*
X041433Y016800D03*
X042433Y016800D03*
X042433Y020800D03*
X041433Y020800D03*
X040433Y020800D03*
X039433Y020800D03*
X038433Y020800D03*
X037433Y020800D03*
X034433Y020800D03*
X033433Y020800D03*
X032433Y020800D03*
X031433Y020800D03*
X030433Y020800D03*
X029433Y020800D03*
X028433Y020800D03*
X027433Y020800D03*
X026183Y020800D03*
X025183Y020800D03*
X024183Y020800D03*
X023183Y020800D03*
X022183Y020800D03*
X021183Y020800D03*
X020183Y020800D03*
X019183Y020800D03*
X019183Y025800D03*
X020183Y025800D03*
X021183Y025800D03*
X022183Y025800D03*
X023183Y025800D03*
X024183Y025800D03*
X025183Y025800D03*
X026183Y025800D03*
X027433Y025800D03*
X028433Y025800D03*
X029433Y025800D03*
X030433Y025800D03*
X031433Y025800D03*
X032433Y025800D03*
X033433Y025800D03*
X034433Y025800D03*
X034433Y011800D03*
X033433Y011800D03*
X032433Y011800D03*
X031433Y011800D03*
X030433Y011800D03*
X029433Y011800D03*
X028433Y011800D03*
X027433Y011800D03*
X026433Y011800D03*
X025433Y011800D03*
X024433Y011800D03*
X023433Y011800D03*
X022433Y011800D03*
X021433Y011800D03*
X020433Y011800D03*
X019433Y011800D03*
X035433Y011800D03*
X036433Y011800D03*
X037433Y011800D03*
X038433Y011800D03*
X039433Y011800D03*
X040433Y011800D03*
X041433Y011800D03*
X042433Y011800D03*
D21*
X042996Y008863D03*
X043996Y008863D03*
X044996Y008863D03*
X045996Y008863D03*
X045996Y007863D03*
X044996Y007863D03*
X043996Y007863D03*
X042996Y007863D03*
X039933Y007863D03*
X039933Y008863D03*
X038933Y008863D03*
X037933Y008863D03*
X036933Y008863D03*
X035933Y008863D03*
X035933Y007863D03*
X036933Y007863D03*
X037933Y007863D03*
X038933Y007863D03*
D22*
X045933Y012800D03*
D23*
X045933Y013800D03*
X045933Y014800D03*
X045933Y015800D03*
X045933Y016800D03*
X045933Y017800D03*
X045933Y018800D03*
X045933Y019800D03*
X045933Y020800D03*
X045933Y021800D03*
X045933Y022800D03*
X045933Y023800D03*
X045933Y024800D03*
X045933Y025800D03*
X045933Y026800D03*
X045933Y027800D03*
X045933Y028800D03*
X045933Y029800D03*
X018183Y014050D03*
X018183Y013050D03*
D24*
X019553Y009165D03*
X022313Y009165D03*
M02*
