%
M48
M72
T01C0.0236
T02C0.0315
T03C0.0354
T04C0.0394
T05C0.0400
T06C0.0440
T07C0.0472
T08C0.0550
T09C0.0590
T10C0.1260
%
T01
X37433Y14050
X33648Y13363
X29433Y14050
X27683Y14050
X20683Y19550
X19683Y19550
X18683Y19550
X16683Y18550
X18933Y22550
X18683Y25050
X13933Y28550
X29746Y24363
X35058Y24550
X35808Y19675
T02
X25683Y26925
X18808Y27550
T03
X42433Y11925
X41433Y11925
X40433Y11925
X39433Y11925
X38433Y11925
X37433Y11925
X36433Y11925
X35433Y11925
X34433Y11925
X33433Y11925
X32433Y11925
X31433Y11925
X30433Y11925
X29433Y11925
X28433Y11925
X27433Y11925
X26433Y11925
X25433Y11925
X24433Y11925
X23433Y11925
X22433Y11925
X21433Y11925
X20433Y11925
X19433Y11925
X19433Y16925
X20433Y16925
X21433Y16925
X22433Y16925
X23433Y16925
X24433Y16925
X25433Y16925
X26433Y16925
X27433Y16925
X28433Y16925
X29433Y16925
X30433Y16925
X31433Y16925
X32433Y16925
X33433Y16925
X34433Y16925
X35433Y16925
X36433Y16925
X37433Y16925
X38433Y16925
X39433Y16925
X40433Y16925
X41433Y16925
X42433Y16925
X42433Y20800
X41433Y20800
X40433Y20800
X39433Y20800
X38433Y20800
X37433Y20800
X34433Y20800
X33433Y20800
X32433Y20800
X31433Y20800
X30433Y20800
X29433Y20800
X28433Y20800
X27433Y20800
X26183Y20800
X25183Y20800
X24183Y20800
X23183Y20800
X22183Y20800
X21183Y20800
X20183Y20800
X19183Y20800
X19183Y25800
X20183Y25800
X21183Y25800
X22183Y25800
X23183Y25800
X24183Y25800
X25183Y25800
X26183Y25800
X27433Y25800
X28433Y25800
X29433Y25800
X30433Y25800
X31433Y25800
X32433Y25800
X33433Y25800
X34433Y25800
X35933Y8863
X36933Y8863
X37933Y8863
X38933Y8863
X39933Y8863
X39933Y7863
X38933Y7863
X37933Y7863
X36933Y7863
X35933Y7863
X42996Y7863
X42996Y8863
X43996Y8863
X44996Y8863
X45996Y8863
X45996Y7863
X44996Y7863
X43996Y7863
T04
X42933Y10800
X41933Y10800
X40933Y10800
X39933Y10800
X38933Y10800
X37933Y10800
X36933Y10800
X35933Y10800
X33933Y10800
X32933Y10800
X31933Y10800
X30933Y10800
X29933Y10800
X28933Y10800
X27933Y10800
X26933Y10800
X24933Y10800
X23933Y10800
X22933Y10800
X21933Y10800
X20933Y10800
X19933Y10800
X43933Y12800
X44933Y12800
X44933Y13800
X43933Y13800
X43933Y14800
X44933Y14800
X44933Y15800
X43933Y15800
X43933Y16800
X43933Y17800
X44933Y17800
X44933Y16800
X44933Y18800
X43933Y18800
X43933Y19800
X43933Y20800
X44933Y20800
X44933Y19800
X44933Y21800
X43933Y21800
X43933Y22800
X43933Y23800
X44933Y23800
X44933Y22800
X44933Y24800
X43933Y24800
X43933Y25800
X43933Y26800
X44933Y26800
X44933Y25800
X44933Y27800
X43933Y27800
X43933Y28800
X44933Y28800
X44933Y29800
X43933Y29800
X40933Y29800
X39933Y29800
X38933Y29800
X37933Y29800
X36933Y29800
X35933Y29800
X34933Y29800
X33933Y29800
X31933Y29800
X30933Y29800
X29933Y29800
X28933Y29800
X27933Y29800
X26933Y29800
X25933Y29800
X24933Y29800
X23333Y29800
X22333Y29800
X21333Y29800
X20333Y29800
X19333Y29800
X18333Y29800
X17333Y29800
X16333Y29800
T05
X16183Y27300
X15183Y27300
X17183Y27300
X17183Y24550
X16183Y24550
X15183Y24550
X15183Y21425
X15183Y20425
X15183Y19425
X22683Y18800
X23683Y18800
X24683Y18800
X25683Y18800
X25433Y15300
X24433Y15300
X23433Y15300
X23433Y14300
X24433Y14300
X25433Y14300
X31433Y14300
X32433Y14300
X33433Y14300
X33433Y15300
X32433Y15300
X31433Y15300
X31433Y18800
X30433Y18800
X32433Y18800
X33433Y18800
X37433Y18800
X38433Y18800
X39433Y18800
X40433Y18800
X40433Y17800
X39433Y17800
X38433Y17800
X37433Y17800
X39433Y15300
X40433Y15300
X41433Y15300
X41433Y14300
X40433Y14300
X39433Y14300
X46183Y12800
X46183Y13800
X46183Y14800
X46183Y15800
X46183Y16800
X46183Y17800
X46183Y18800
X46183Y19800
X46183Y20800
X46183Y21800
X46183Y22800
X46183Y23800
X46183Y24800
X46183Y25800
X46183Y26800
X46183Y27800
X46183Y28800
X46183Y29800
X42183Y28988
X42183Y27988
X41183Y27987
X40183Y27987
X39183Y27987
X38183Y27987
X37183Y27987
X36183Y27987
X36183Y26987
X37183Y26987
X38183Y26987
X39183Y26987
X40183Y26987
X41183Y26987
X42183Y26988
X42183Y25988
X41183Y25987
X40183Y25987
X39183Y25987
X38183Y25987
X37183Y25987
X36183Y25987
X33433Y24300
X32433Y24300
X31433Y24300
X31433Y23300
X32433Y23300
X33433Y23300
X33183Y27800
X32183Y27800
X31183Y27800
X30183Y27800
X25183Y27800
X24183Y27800
X23183Y27800
X22183Y27800
X23183Y24050
X24183Y24050
X25183Y24050
X25183Y23050
X24183Y23050
X23183Y23050
X18183Y14050
X18183Y13050
X18433Y9675
X18433Y8665
X18433Y7665
X20043Y8185
X21823Y8185
X23621Y8300
X24621Y8300
X25621Y8300
X26621Y8300
X26621Y9300
X25621Y9300
X24621Y9300
X23621Y9300
X23621Y7300
X24621Y7300
X25621Y7300
X26621Y7300
X29683Y7862
X30683Y7862
X31683Y7862
X32683Y7862
X32683Y8863
X31683Y8863
X30683Y8863
X29683Y8863
T06
X28843Y12851
X24843Y12851
X16933Y14300
X16933Y10300
T07
X15746Y10300
X14371Y10487
X14371Y14487
X15746Y14300
X12183Y17300
X12183Y19300
X12183Y21300
X12183Y23300
X12183Y25300
X12183Y27300
T08
X9808Y8988
X9808Y10988
X9808Y12988
X9808Y14988
T09
X22376Y9165
X19553Y9165
T10
X12433Y10800
X12933Y29800
X44933Y10800
M30
