%
M48
M72
T01C0.0315
T02C0.0354
T03C0.0394
T04C0.0400
T05C0.0440
T06C0.0472
T07C0.0550
T08C0.0590
T09C0.1260
%
T01
X41143Y13863
X37608Y13363
X33456Y13988
X31081Y13925
X24581Y19675
X23706Y19675
X22706Y19675
X20706Y18550
X22331Y22550
X22706Y25050
X22831Y27550
X17706Y28175
X29831Y26925
X33518Y24488
X39081Y24550
X40206Y19988
T02
X41456Y20800
X42456Y20800
X43456Y20800
X44456Y20800
X45456Y20800
X46456Y20800
X46456Y16925
X45456Y16925
X44456Y16925
X43456Y16925
X42456Y16925
X41456Y16925
X40456Y16925
X39456Y16925
X38456Y16925
X37456Y16925
X36456Y16925
X35456Y16925
X34456Y16925
X33456Y16925
X32456Y16925
X31456Y16925
X30456Y16925
X29456Y16925
X28456Y16925
X27456Y16925
X26456Y16925
X25456Y16925
X24456Y16925
X23456Y16925
X23206Y20800
X24206Y20800
X25206Y20800
X26206Y20800
X27206Y20800
X28206Y20800
X29206Y20800
X30206Y20800
X31456Y20800
X32456Y20800
X33456Y20800
X34456Y20800
X35456Y20800
X36456Y20800
X37456Y20800
X38456Y20800
X38456Y25800
X37456Y25800
X36456Y25800
X35456Y25800
X34456Y25800
X33456Y25800
X32456Y25800
X31456Y25800
X30206Y25800
X29206Y25800
X28206Y25800
X27206Y25800
X26206Y25800
X25206Y25800
X24206Y25800
X23206Y25800
X23456Y11925
X24456Y11925
X25456Y11925
X26456Y11925
X27456Y11925
X28456Y11925
X29456Y11925
X30456Y11925
X31456Y11925
X32456Y11925
X33456Y11925
X34456Y11925
X35456Y11925
X36456Y11925
X37456Y11925
X38456Y11925
X39456Y11925
X40456Y11925
X41456Y11925
X42456Y11925
X43456Y11925
X44456Y11925
X45456Y11925
X46456Y11925
X48018Y8863
X47018Y8863
X47018Y7863
X48018Y7863
X49018Y7863
X50018Y7863
X50018Y8863
X49018Y8863
X43956Y8863
X42956Y8863
X41956Y8863
X40956Y8863
X39956Y8863
X39956Y7863
X40956Y7863
X41956Y7863
X42956Y7863
X43956Y7863
T03
X43956Y10800
X44956Y10800
X45956Y10800
X46956Y10800
X47956Y12800
X48956Y12800
X48956Y13800
X48956Y14800
X48956Y15800
X47956Y15800
X47956Y14800
X47956Y13800
X47956Y16800
X48956Y16800
X48956Y17800
X48956Y18800
X47956Y18800
X47956Y17800
X47956Y19800
X48956Y19800
X48956Y20800
X48956Y21800
X47956Y21800
X47956Y20800
X47956Y22800
X48956Y22800
X48956Y23800
X48956Y24800
X47956Y24800
X47956Y23800
X47956Y25800
X48956Y25800
X48956Y26800
X48956Y27800
X47956Y27800
X47956Y26800
X47956Y28800
X48956Y28800
X48956Y29800
X47956Y29800
X44956Y29800
X43956Y29800
X42956Y29800
X41956Y29800
X40956Y29800
X39956Y29800
X38956Y29800
X37956Y29800
X35956Y29800
X34956Y29800
X33956Y29800
X32956Y29800
X31956Y29800
X30956Y29800
X29956Y29800
X28956Y29800
X27356Y29800
X26356Y29800
X25356Y29800
X24356Y29800
X23356Y29800
X22356Y29800
X21356Y29800
X20356Y29800
X23956Y10800
X24956Y10800
X25956Y10800
X26956Y10800
X27956Y10800
X28956Y10800
X30956Y10800
X31956Y10800
X32956Y10800
X33956Y10800
X34956Y10800
X35956Y10800
X36956Y10800
X37956Y10800
X39956Y10800
X40956Y10800
X41956Y10800
X42956Y10800
T04
X43456Y14425
X44456Y14425
X45456Y14425
X45456Y15425
X44456Y15425
X43456Y15425
X43456Y17800
X42456Y17800
X42456Y18800
X43456Y18800
X44456Y18800
X44456Y17800
X41456Y17800
X41456Y18800
X37456Y18800
X36456Y18800
X35456Y18800
X34456Y18800
X29706Y18800
X28706Y18800
X27706Y18800
X26706Y18800
X27206Y15425
X28206Y15425
X29206Y15425
X29206Y14425
X28206Y14425
X27206Y14425
X22206Y14050
X22206Y13050
X22456Y9675
X22456Y8665
X24066Y8185
X22456Y7665
X25846Y8185
X27643Y8300
X28643Y8300
X28643Y7300
X27643Y7300
X29643Y7300
X29643Y8300
X29643Y9300
X28643Y9300
X27643Y9300
X30643Y9300
X30643Y8300
X30643Y7300
X33706Y7862
X34706Y7862
X35706Y7862
X36706Y7862
X36706Y8863
X35706Y8863
X34706Y8863
X33706Y8863
X35456Y14300
X36456Y14300
X37456Y14300
X37456Y15300
X36456Y15300
X35456Y15300
X29206Y23050
X28206Y23050
X27206Y23050
X27206Y24050
X28206Y24050
X29206Y24050
X29206Y27800
X28206Y27800
X27206Y27800
X26206Y27800
X21206Y27300
X20206Y27300
X19206Y27300
X19206Y24550
X20206Y24550
X21206Y24550
X19206Y21425
X19206Y20425
X19206Y19425
X34206Y27800
X35206Y27800
X36206Y27800
X37206Y27800
X40206Y27987
X41206Y27987
X42206Y27987
X43206Y27987
X44206Y27987
X45206Y27987
X46206Y27988
X46206Y28988
X46206Y26988
X45206Y26987
X45206Y25987
X46206Y25988
X44206Y25987
X43206Y25987
X42206Y25987
X41206Y25987
X40206Y25987
X40206Y26987
X41206Y26987
X42206Y26987
X43206Y26987
X44206Y26987
X50206Y27300
X50206Y26300
X50206Y25300
X50206Y24300
X50206Y23300
X50206Y22300
X50206Y21300
X50206Y20300
X50206Y19300
X50206Y18300
X50206Y17300
X50206Y16300
X50206Y15300
X50206Y14300
X50206Y13300
X37456Y23300
X37456Y24300
X36456Y24300
X35456Y24300
X35456Y23300
X36456Y23300
X50206Y28300
X50206Y29300
X50206Y30300
T05
X32491Y12913
X28491Y12913
X20956Y14300
X20956Y10300
T06
X19768Y10300
X18393Y10487
X18393Y14487
X19768Y14300
X16206Y17300
X16206Y19300
X16206Y21300
X16206Y23300
X16206Y25300
X16206Y27300
T07
X13831Y8988
X13831Y10988
X13831Y12988
X13831Y14988
T08
X26398Y9165
X23576Y9165
T09
X16456Y10800
X16956Y29800
X48956Y10800
M30
