G75*
G70*
%OFA0B0*%
%FSLAX24Y24*%
%IPPOS*%
%LPD*%
%AMOC8*
5,1,8,0,0,1.08239X$1,22.5*
%
%ADD10R,0.0513X0.0631*%
%ADD11R,0.0710X0.1104*%
%ADD12C,0.0680*%
%ADD13C,0.0680*%
%ADD14C,0.0740*%
%ADD15C,0.0674*%
%ADD16C,0.1340*%
%ADD17R,0.0552X0.0552*%
%ADD18R,0.1458X0.0710*%
%ADD19C,0.0789*%
%ADD20OC8,0.0986*%
%ADD21R,0.0631X0.0513*%
%ADD22OC8,0.0840*%
%ADD23C,0.0986*%
%ADD24C,0.0905*%
%ADD25C,0.0640*%
%ADD26OC8,0.0640*%
%ADD27C,0.0634*%
%ADD28C,0.0986*%
%ADD29C,0.0749*%
%ADD30C,0.0749*%
%ADD31R,0.0820X0.0820*%
%ADD32C,0.0820*%
%ADD33R,0.0592X0.0671*%
%ADD34R,0.0592X0.0710*%
%ADD35OC8,0.0680*%
%ADD36C,0.0965*%
%ADD37C,0.0476*%
%ADD38C,0.0867*%
D10*
X022540Y013300D03*
X023327Y013300D03*
X031815Y013275D03*
X032602Y013275D03*
X038790Y013050D03*
X039577Y013050D03*
X035827Y021845D03*
X035040Y021845D03*
X035040Y022883D03*
X035040Y023612D03*
X035827Y023612D03*
X035827Y022883D03*
X023202Y021925D03*
X022415Y021925D03*
X021702Y021925D03*
X020915Y021925D03*
X017327Y019425D03*
X016540Y019425D03*
X019602Y027800D03*
X020390Y027800D03*
X020202Y028675D03*
X019415Y028675D03*
X016827Y028550D03*
X016040Y028550D03*
D11*
X037233Y024319D03*
X037233Y022901D03*
X039233Y022901D03*
X039233Y024319D03*
X041233Y024319D03*
X041233Y022901D03*
D12*
X041183Y025987D03*
X040183Y025987D03*
X039183Y025987D03*
X038183Y025987D03*
X037183Y025987D03*
X036183Y025987D03*
X036183Y026987D03*
X037183Y026987D03*
X038183Y026987D03*
X039183Y026987D03*
X040183Y026987D03*
X041183Y026987D03*
X042183Y026988D03*
X042183Y027988D03*
X042183Y028988D03*
X041183Y027987D03*
X040183Y027987D03*
X039183Y027987D03*
X038183Y027987D03*
X037183Y027987D03*
X036183Y027987D03*
X033183Y027800D03*
X032183Y027800D03*
X031183Y027800D03*
X030183Y027800D03*
X025183Y027800D03*
X024183Y027800D03*
X023183Y027800D03*
X022183Y027800D03*
X022683Y018800D03*
X023683Y018800D03*
X024683Y018800D03*
X025683Y018800D03*
X030433Y018800D03*
X031433Y018800D03*
X032433Y018800D03*
X033433Y018800D03*
X037433Y018800D03*
X038433Y018800D03*
X039433Y018800D03*
X040433Y018800D03*
X040433Y017800D03*
X039433Y017800D03*
X038433Y017800D03*
X037433Y017800D03*
X042183Y025988D03*
X026621Y009300D03*
X026621Y008300D03*
X025621Y008300D03*
X025621Y009300D03*
X024621Y009300D03*
X024621Y008300D03*
X023621Y008300D03*
X023621Y009300D03*
X021823Y008185D03*
X023621Y007300D03*
X024621Y007300D03*
X025621Y007300D03*
X026621Y007300D03*
X029683Y007862D03*
X030683Y007862D03*
X031683Y007862D03*
X032683Y007862D03*
X032683Y008863D03*
X031683Y008863D03*
X030683Y008863D03*
X029683Y008863D03*
D13*
X015483Y019425D02*
X014883Y019425D01*
X014883Y020425D02*
X015483Y020425D01*
X015483Y021425D02*
X014883Y021425D01*
X015183Y024250D02*
X015183Y024850D01*
X016183Y024850D02*
X016183Y024250D01*
X017183Y024250D02*
X017183Y024850D01*
X017183Y027000D02*
X017183Y027600D01*
X016183Y027600D02*
X016183Y027000D01*
X015183Y027000D02*
X015183Y027600D01*
D14*
X016933Y014300D03*
X016933Y010300D03*
X024843Y012851D03*
X028843Y012851D03*
D15*
X028933Y010800D03*
X027933Y010800D03*
X026933Y010800D03*
X024933Y010800D03*
X023933Y010800D03*
X022933Y010800D03*
X021933Y010800D03*
X020933Y010800D03*
X019933Y010800D03*
X029933Y010800D03*
X030933Y010800D03*
X031933Y010800D03*
X032933Y010800D03*
X033933Y010800D03*
X035933Y010800D03*
X036933Y010800D03*
X037933Y010800D03*
X038933Y010800D03*
X039933Y010800D03*
X040933Y010800D03*
X041933Y010800D03*
X042933Y010800D03*
X043933Y012800D03*
X044933Y012800D03*
X044933Y013800D03*
X043933Y013800D03*
X043933Y014800D03*
X044933Y014800D03*
X044933Y015800D03*
X043933Y015800D03*
X043933Y016800D03*
X043933Y017800D03*
X044933Y017800D03*
X044933Y016800D03*
X044933Y018800D03*
X043933Y018800D03*
X043933Y019800D03*
X043933Y020800D03*
X044933Y020800D03*
X044933Y019800D03*
X044933Y021800D03*
X043933Y021800D03*
X043933Y022800D03*
X043933Y023800D03*
X044933Y023800D03*
X044933Y022800D03*
X044933Y024800D03*
X043933Y024800D03*
X043933Y025800D03*
X043933Y026800D03*
X044933Y026800D03*
X044933Y025800D03*
X044933Y027800D03*
X043933Y027800D03*
X043933Y028800D03*
X044933Y028800D03*
X044933Y029800D03*
X043933Y029800D03*
X040933Y029800D03*
X039933Y029800D03*
X038933Y029800D03*
X037933Y029800D03*
X036933Y029800D03*
X035933Y029800D03*
X034933Y029800D03*
X033933Y029800D03*
X031933Y029800D03*
X030933Y029800D03*
X029933Y029800D03*
X028933Y029800D03*
X027933Y029800D03*
X026933Y029800D03*
X025933Y029800D03*
X024933Y029800D03*
X023333Y029800D03*
X022333Y029800D03*
X021333Y029800D03*
X020333Y029800D03*
X019333Y029800D03*
X018333Y029800D03*
X017333Y029800D03*
X016333Y029800D03*
D16*
X012933Y029800D03*
X012433Y010800D03*
X044933Y010800D03*
D17*
X017347Y020425D03*
X016520Y020425D03*
X014996Y028887D03*
X014996Y029713D03*
X008933Y029713D03*
X008933Y028887D03*
X007933Y028887D03*
X007933Y029713D03*
D18*
X019370Y023800D03*
X021496Y023800D03*
X027620Y023800D03*
X029746Y023800D03*
X020996Y018738D03*
X018870Y018738D03*
X019370Y014800D03*
X021496Y014800D03*
X027370Y014800D03*
X029496Y014800D03*
X035370Y014800D03*
X037496Y014800D03*
D19*
X026433Y012279D02*
X026433Y011571D01*
X012538Y017300D02*
X011829Y017300D01*
X011829Y019300D02*
X012538Y019300D01*
X012538Y021300D02*
X011829Y021300D01*
X011829Y023300D02*
X012538Y023300D01*
X012538Y025300D02*
X011829Y025300D01*
X011829Y027300D02*
X012538Y027300D01*
D20*
X023183Y024050D03*
X024183Y024050D03*
X025183Y024050D03*
X025183Y023050D03*
X024183Y023050D03*
X023183Y023050D03*
X031433Y023300D03*
X032433Y023300D03*
X033433Y023300D03*
X033433Y024300D03*
X032433Y024300D03*
X031433Y024300D03*
X031433Y015300D03*
X032433Y015300D03*
X033433Y015300D03*
X033433Y014300D03*
X032433Y014300D03*
X031433Y014300D03*
X025433Y014300D03*
X024433Y014300D03*
X023433Y014300D03*
X023433Y015300D03*
X024433Y015300D03*
X025433Y015300D03*
X039433Y015300D03*
X040433Y015300D03*
X041433Y015300D03*
X041433Y014300D03*
X040433Y014300D03*
X039433Y014300D03*
D21*
X042683Y021906D03*
X042683Y022694D03*
X042683Y023906D03*
X042683Y024694D03*
X030585Y024384D03*
X030585Y023596D03*
X010933Y028906D03*
X010933Y029694D03*
X009933Y029694D03*
X009933Y028906D03*
D22*
X018433Y009675D03*
X018433Y008665D03*
X018433Y007665D03*
D23*
X015746Y009847D02*
X015746Y010753D01*
X014371Y010940D02*
X014371Y010035D01*
X014371Y014035D02*
X014371Y014940D01*
X015746Y014753D02*
X015746Y013847D01*
D24*
X010221Y008988D02*
X009396Y008988D01*
X009396Y010988D02*
X010221Y010988D01*
X010221Y012988D02*
X009396Y012988D01*
X009396Y014988D02*
X010221Y014988D01*
D25*
X037433Y020800D03*
X038433Y020800D03*
X039433Y020800D03*
X040433Y020800D03*
X041433Y020800D03*
X042433Y020800D03*
D26*
X042996Y008863D03*
X043996Y008863D03*
X044996Y008863D03*
X045996Y008863D03*
X045996Y007863D03*
X044996Y007863D03*
X043996Y007863D03*
X042996Y007863D03*
X039933Y007863D03*
X039933Y008863D03*
X038933Y008863D03*
X037933Y008863D03*
X036933Y008863D03*
X035933Y008863D03*
X035933Y007863D03*
X036933Y007863D03*
X037933Y007863D03*
X038933Y007863D03*
D27*
X038433Y011925D03*
X037433Y011925D03*
X036433Y011925D03*
X035433Y011925D03*
X034433Y011925D03*
X033433Y011925D03*
X032433Y011925D03*
X031433Y011925D03*
X030433Y011925D03*
X029433Y011925D03*
X028433Y011925D03*
X027433Y011925D03*
X023433Y011925D03*
X022433Y011925D03*
X021433Y011925D03*
X020433Y011925D03*
X025433Y016925D03*
X026433Y016925D03*
X027433Y016925D03*
X028433Y016925D03*
X029433Y016925D03*
X030433Y016925D03*
X031433Y016925D03*
X032433Y016925D03*
X033433Y016925D03*
X034433Y016925D03*
X035433Y016925D03*
X036433Y016925D03*
X037433Y016925D03*
X038433Y016925D03*
X039433Y016925D03*
X040433Y016925D03*
X041433Y016925D03*
X042433Y016925D03*
X042433Y011925D03*
X041433Y011925D03*
X040433Y011925D03*
X039433Y011925D03*
X034433Y020800D03*
X033433Y020800D03*
X032433Y020800D03*
X031433Y020800D03*
X030433Y020800D03*
X029433Y020800D03*
X028433Y020800D03*
X027433Y020800D03*
X026183Y020800D03*
X025183Y020800D03*
X024183Y020800D03*
X023183Y020800D03*
X022183Y020800D03*
X021183Y020800D03*
X020183Y020800D03*
X019183Y020800D03*
X019183Y025800D03*
X020183Y025800D03*
X021183Y025800D03*
X022183Y025800D03*
X023183Y025800D03*
X024183Y025800D03*
X025183Y025800D03*
X026183Y025800D03*
X027433Y025800D03*
X028433Y025800D03*
X029433Y025800D03*
X030433Y025800D03*
X031433Y025800D03*
X032433Y025800D03*
X033433Y025800D03*
X034433Y025800D03*
D28*
X035058Y024550D03*
X029746Y024363D03*
X025683Y026925D03*
X018808Y027550D03*
X018683Y025050D03*
X019433Y016925D03*
X020433Y016925D03*
X021433Y016925D03*
X022433Y016925D03*
X023433Y016925D03*
X024433Y016925D03*
X019433Y011925D03*
D29*
X024433Y011925D03*
D30*
X025433Y011590D02*
X025433Y012260D01*
D31*
X046183Y012800D03*
D32*
X046183Y013800D03*
X046183Y014800D03*
X046183Y015800D03*
X046183Y016800D03*
X046183Y017800D03*
X046183Y018800D03*
X046183Y019800D03*
X046183Y020800D03*
X046183Y021800D03*
X046183Y022800D03*
X046183Y023800D03*
X046183Y024800D03*
X046183Y025800D03*
X046183Y026800D03*
X046183Y027800D03*
X046183Y028800D03*
X046183Y029800D03*
X018183Y014050D03*
X018183Y013050D03*
D33*
X017268Y021425D03*
X016599Y021425D03*
X019099Y021925D03*
X019768Y021925D03*
X018518Y028550D03*
X017849Y028550D03*
D34*
X019559Y026800D03*
X020307Y026800D03*
D35*
X020043Y008185D03*
D36*
X019553Y009165D03*
X022376Y009165D03*
D37*
X027683Y014050D03*
X029433Y014050D03*
X035808Y019675D03*
X037433Y014050D03*
X020683Y019550D03*
X019683Y019550D03*
X018683Y019550D03*
X016683Y018550D03*
X018933Y022550D03*
X013933Y028550D03*
D38*
X033648Y013363D03*
M02*
