G75*
G70*
%OFA0B0*%
%FSLAX24Y24*%
%IPPOS*%
%LPD*%
%AMOC8*
5,1,8,0,0,1.08239X$1,22.5*
%
%ADD10R,0.0513X0.0631*%
%ADD11C,0.0986*%
%ADD12C,0.0720*%
%ADD13R,0.0749X0.0749*%
%ADD14C,0.0749*%
%ADD15OC8,0.0749*%
%ADD16C,0.0749*%
%ADD17C,0.1340*%
%ADD18C,0.0836*%
%ADD19OC8,0.0986*%
%ADD20R,0.0631X0.0513*%
%ADD21C,0.0986*%
%ADD22R,0.0789X0.0552*%
%ADD23C,0.0960*%
%ADD24R,0.0789X0.0789*%
%ADD25R,0.0986X0.0986*%
%ADD26C,0.0789*%
%ADD27R,0.0820X0.0820*%
%ADD28C,0.0820*%
%ADD29C,0.1024*%
%ADD30R,0.0513X0.0474*%
%ADD31R,0.0474X0.0513*%
%ADD32R,0.0552X0.0789*%
%ADD33C,0.0867*%
%ADD34C,0.0840*%
D10*
X031437Y019925D03*
X032225Y019925D03*
X026350Y024050D03*
X025562Y024050D03*
X041562Y019943D03*
X042350Y019943D03*
X043687Y019967D03*
X044475Y019967D03*
X045812Y019863D03*
X046600Y019863D03*
X040225Y012925D03*
X039437Y012925D03*
D11*
X039456Y011925D03*
X040456Y011925D03*
X041456Y011925D03*
X040956Y010800D03*
X039956Y010800D03*
X037956Y010800D03*
X041143Y013863D03*
X041456Y016925D03*
X040456Y016925D03*
X041456Y017800D03*
X041456Y018800D03*
X040206Y019988D03*
X041456Y020800D03*
X042456Y020800D03*
X043456Y020800D03*
X044456Y020800D03*
X045456Y020800D03*
X046456Y020800D03*
X047956Y020800D03*
X048956Y020800D03*
X048956Y019800D03*
X047956Y019800D03*
X047956Y018800D03*
X048956Y018800D03*
X048956Y017800D03*
X048956Y016800D03*
X048956Y015800D03*
X048956Y014800D03*
X044456Y016925D03*
X043456Y016925D03*
X042456Y016925D03*
X036456Y016925D03*
X035456Y016925D03*
X034456Y016925D03*
X034456Y018800D03*
X034456Y020800D03*
X033456Y020800D03*
X035456Y020800D03*
X036456Y020800D03*
X039081Y024550D03*
X040206Y025987D03*
X041206Y025987D03*
X042206Y025987D03*
X043206Y025987D03*
X044206Y025987D03*
X045206Y025987D03*
X046206Y025988D03*
X045206Y026987D03*
X044206Y026987D03*
X043206Y026987D03*
X042206Y026987D03*
X041206Y026987D03*
X040206Y026987D03*
X040206Y027987D03*
X041206Y027987D03*
X042206Y027987D03*
X043206Y027987D03*
X044206Y027987D03*
X045206Y027987D03*
X044956Y029800D03*
X043956Y029800D03*
X042956Y029800D03*
X041956Y029800D03*
X040956Y029800D03*
X039956Y029800D03*
X038956Y029800D03*
X037956Y029800D03*
X035956Y029800D03*
X034956Y029800D03*
X033956Y029800D03*
X032956Y029800D03*
X031956Y029800D03*
X030956Y029800D03*
X029956Y029800D03*
X028956Y029800D03*
X027356Y029800D03*
X026356Y029800D03*
X025356Y029800D03*
X024356Y029800D03*
X023356Y029800D03*
X022356Y029800D03*
X021356Y029800D03*
X020356Y029800D03*
X017706Y028175D03*
X022706Y025050D03*
X023206Y025800D03*
X024206Y025800D03*
X022831Y027550D03*
X026206Y027800D03*
X028206Y025800D03*
X029831Y026925D03*
X033518Y024488D03*
X035456Y025800D03*
X036456Y025800D03*
X037456Y025800D03*
X034206Y027800D03*
X027206Y020800D03*
X026206Y020800D03*
X025206Y020800D03*
X024206Y020800D03*
X023206Y020800D03*
X022706Y019675D03*
X020706Y018550D03*
X023456Y016925D03*
X024456Y016925D03*
X025456Y016925D03*
X026456Y016925D03*
X027456Y016925D03*
X028456Y016925D03*
X026706Y018800D03*
X022331Y022550D03*
X020956Y014300D03*
X023456Y011925D03*
X024456Y011925D03*
X025456Y011925D03*
X025956Y010800D03*
X024956Y010800D03*
X023956Y010800D03*
X020956Y010300D03*
X025846Y008185D03*
X027643Y008300D03*
X028643Y008300D03*
X028643Y007300D03*
X027643Y007300D03*
X029643Y007300D03*
X029643Y008300D03*
X029643Y009300D03*
X028643Y009300D03*
X027643Y009300D03*
X030643Y009300D03*
X030643Y008300D03*
X030643Y007300D03*
X033706Y007862D03*
X033706Y008863D03*
X032956Y010800D03*
X031956Y010800D03*
X030956Y010800D03*
X031456Y011925D03*
X032456Y011925D03*
X033456Y011925D03*
X032491Y012913D03*
X028491Y012913D03*
X045956Y010800D03*
X047956Y021800D03*
X048956Y021800D03*
X047956Y022800D03*
X047956Y023800D03*
X047956Y024800D03*
X048956Y024800D03*
X048956Y025800D03*
X048956Y026800D03*
X048956Y027800D03*
X047956Y027800D03*
X047956Y026800D03*
X047956Y025800D03*
X047956Y028800D03*
X048956Y028800D03*
X048956Y029800D03*
X047956Y029800D03*
D12*
X021206Y027620D02*
X021206Y026980D01*
X020206Y026980D02*
X020206Y027620D01*
X019206Y027620D02*
X019206Y026980D01*
X019206Y024870D02*
X019206Y024230D01*
X020206Y024230D02*
X020206Y024870D01*
X021206Y024870D02*
X021206Y024230D01*
X019526Y021425D02*
X018886Y021425D01*
X018886Y020425D02*
X019526Y020425D01*
X019526Y019425D02*
X018886Y019425D01*
D13*
X027706Y018800D03*
X028706Y018800D03*
X029706Y018800D03*
X029456Y016925D03*
X030456Y016925D03*
X031456Y016925D03*
X032456Y016925D03*
X033456Y016925D03*
X035456Y018800D03*
X036456Y018800D03*
X037456Y018800D03*
X037456Y016925D03*
X038456Y016925D03*
X039456Y016925D03*
X042456Y017800D03*
X043456Y017800D03*
X044456Y017800D03*
X044456Y018800D03*
X043456Y018800D03*
X042456Y018800D03*
X045456Y016925D03*
X046456Y016925D03*
X047956Y016800D03*
X047956Y017800D03*
X050206Y015300D03*
X050206Y014300D03*
X048956Y013800D03*
X047956Y014800D03*
X045456Y011925D03*
X044456Y011925D03*
X043456Y011925D03*
X042456Y011925D03*
X042956Y010800D03*
X041956Y010800D03*
X043956Y010800D03*
X044956Y010800D03*
X043956Y008863D03*
X042956Y008863D03*
X041956Y008863D03*
X040956Y008863D03*
X039956Y008863D03*
X036706Y008863D03*
X035706Y008863D03*
X034706Y008863D03*
X034706Y007862D03*
X035706Y007862D03*
X036706Y007862D03*
X036956Y010800D03*
X035956Y010800D03*
X034956Y010800D03*
X033956Y010800D03*
X034456Y011925D03*
X035456Y011925D03*
X036456Y011925D03*
X037456Y011925D03*
X029456Y011925D03*
X028456Y011925D03*
X027456Y011925D03*
X027956Y010800D03*
X026956Y010800D03*
X028956Y010800D03*
X029206Y020800D03*
X028206Y020800D03*
X031456Y020800D03*
X032456Y020800D03*
X037456Y020800D03*
X034456Y025800D03*
X033456Y025800D03*
X032456Y025800D03*
X031456Y025800D03*
X029206Y025800D03*
X027206Y025800D03*
X026206Y025800D03*
X025206Y025800D03*
X027206Y027800D03*
X028206Y027800D03*
X029206Y027800D03*
X035206Y027800D03*
X036206Y027800D03*
X037206Y027800D03*
X046206Y027988D03*
X046206Y028988D03*
X046206Y026988D03*
X048956Y023800D03*
X048956Y022800D03*
X050206Y022300D03*
X050206Y023300D03*
X050018Y008863D03*
X049018Y007863D03*
X048018Y007863D03*
X047018Y007863D03*
X047018Y008863D03*
X048018Y008863D03*
D14*
X046956Y010131D02*
X046956Y010800D01*
X026456Y011590D02*
X026456Y012260D01*
D15*
X030206Y025800D03*
X047956Y015800D03*
X049018Y008863D03*
X050018Y007863D03*
D16*
X048956Y012800D03*
X047956Y012800D03*
X047956Y013800D03*
D17*
X048956Y010800D03*
X016956Y029800D03*
X016456Y010800D03*
D18*
X016584Y017300D02*
X015828Y017300D01*
X015828Y019300D02*
X016584Y019300D01*
X016584Y021300D02*
X015828Y021300D01*
X015828Y023300D02*
X016584Y023300D01*
X016584Y025300D02*
X015828Y025300D01*
X015828Y027300D02*
X016584Y027300D01*
D19*
X027206Y024050D03*
X028206Y024050D03*
X029206Y024050D03*
X029206Y023050D03*
X028206Y023050D03*
X027206Y023050D03*
X035456Y023300D03*
X036456Y023300D03*
X037456Y023300D03*
X037456Y024300D03*
X036456Y024300D03*
X035456Y024300D03*
X035456Y015300D03*
X036456Y015300D03*
X037456Y015300D03*
X037456Y014300D03*
X036456Y014300D03*
X035456Y014300D03*
X029206Y014425D03*
X028206Y014425D03*
X028206Y015425D03*
X029206Y015425D03*
X027206Y015425D03*
X027206Y014425D03*
X022456Y009675D03*
X022456Y008665D03*
X024066Y008185D03*
X022456Y007665D03*
X039956Y007863D03*
X040956Y007863D03*
X041956Y007863D03*
X042956Y007863D03*
X043956Y007863D03*
X044456Y014425D03*
X045456Y014425D03*
X045456Y015425D03*
X044456Y015425D03*
X043456Y015425D03*
X043456Y014425D03*
D20*
X034431Y014294D03*
X034431Y013506D03*
X032893Y010006D03*
X032893Y009219D03*
X022581Y010531D03*
X022581Y011319D03*
D21*
X019768Y010753D02*
X019768Y009847D01*
X018393Y010035D02*
X018393Y010940D01*
X018393Y014035D02*
X018393Y014940D01*
X019768Y014753D02*
X019768Y013847D01*
D22*
X041366Y014675D03*
X042546Y014675D03*
D23*
X014271Y008988D02*
X013391Y008988D01*
X013391Y010988D02*
X014271Y010988D01*
X014271Y012988D02*
X013391Y012988D01*
X013391Y014988D02*
X014271Y014988D01*
D24*
X030206Y020800D03*
X038456Y020800D03*
X046456Y011925D03*
D25*
X038456Y025800D03*
D26*
X038456Y012279D02*
X038456Y011571D01*
X030456Y011571D02*
X030456Y012279D01*
D27*
X050206Y013300D03*
D28*
X050206Y016300D03*
X050206Y017300D03*
X050206Y018300D03*
X050206Y019300D03*
X050206Y020300D03*
X050206Y021300D03*
X050206Y024300D03*
X050206Y025300D03*
X050206Y026300D03*
X050206Y027300D03*
X050206Y028300D03*
X050206Y029300D03*
X050206Y030300D03*
X022206Y014050D03*
X022206Y013050D03*
D29*
X023576Y009165D03*
X026398Y009165D03*
D30*
X046956Y029403D03*
X046956Y030072D03*
D31*
X046416Y030050D03*
X045746Y030050D03*
D32*
X024393Y014078D03*
X024393Y012897D03*
D33*
X024581Y019675D03*
X023706Y019675D03*
X037608Y013363D03*
D34*
X033456Y013988D03*
X031081Y013925D03*
M02*
